<svg width="65" height="64" viewBox="0 0 65 64" fill="none" xmlns="http://www.w3.org/2000/svg">
<path d="M41.6666 44C41.6666 41.653 41.6666 39.865 41.6666 39.865C48.1916 36.572 52.6666 29.808 52.6666 22C52.6666 10.954 43.7126 2 32.6666 2C21.6206 2 12.6666 10.954 12.6666 22C12.6666 29.808 17.1416 36.572 23.6666 39.865V44H41.6666Z" fill="#FFC239"/>
<path d="M32.6666 2C26.9096 2 21.7366 4.446 18.0876 8.339C20.3756 22.845 31.8356 34.301 46.3436 36.582C50.2326 32.934 52.6666 27.753 52.6666 22C52.6666 10.954 43.7126 2 32.6666 2Z" fill="#FFD55D"/>
<path d="M47.1139 15.7722C48.3072 14.4785 47.1811 11.4986 44.5986 9.11634C42.0161 6.73409 38.9551 5.85165 37.7617 7.14535C36.5684 8.43904 37.6945 11.419 40.277 13.8012C42.8595 16.1835 45.9205 17.0659 47.1139 15.7722Z" fill="#FFF7DF"/>
<path d="M30.6666 44H28.6666V28.414L25.9596 25.707L27.3736 24.293L30.3736 27.293C30.5616 27.48 30.6666 27.735 30.6666 28V44Z" fill="#F1F1F3"/>
<path d="M36.6666 44H34.6666V28C34.6666 27.735 34.7716 27.48 34.9596 27.293L37.9596 24.293L39.3736 25.707L36.6666 28.414V44Z" fill="#F1F1F3"/>
<path d="M60.6316 12.21C62.4416 11.175 63.6666 9.23 63.6666 7C63.6666 3.691 60.9756 1 57.6666 1C55.4326 1 53.4836 2.229 52.4516 4.045C47.1706 4.369 40.0406 7.763 32.6686 13.29C21.4006 4.851 10.9516 1.615 6.61663 5.95C3.63863 8.928 4.07663 14.685 7.81763 22.199C7.10763 22.921 6.66663 23.909 6.66663 25C6.66663 27.206 8.46063 29 10.6666 29C12.8726 29 14.6666 27.206 14.6666 25C14.6666 22.794 12.8726 21 10.6666 21C10.2746 21 9.90263 21.074 9.54363 21.18C6.36763 14.737 5.78863 9.606 8.03063 7.364C11.1986 4.197 20.3226 6.645 31.0246 14.55C28.2256 16.758 25.4106 19.257 22.6666 22C12.1376 32.53 5.18163 44.113 4.71163 51.785C2.89563 52.817 1.66663 54.766 1.66663 57C1.66663 60.309 4.35763 63 7.66663 63C9.89863 63 11.8466 61.772 12.8796 59.959C16.1426 59.756 20.2126 58.365 24.6786 55.905L28.4256 54.133L27.5706 52.325L23.7696 54.125C19.8976 56.256 16.4186 57.538 13.5926 57.893C13.6366 57.6 13.6666 57.304 13.6666 57C13.6666 53.691 10.9756 51 7.66663 51C7.36063 51 7.06163 51.03 6.76763 51.075C7.65963 43.943 14.4156 33.08 24.0806 23.415C26.8886 20.607 29.7976 18.056 32.6866 15.811C35.4776 17.988 38.3556 20.519 41.2516 23.415C45.3316 27.495 48.9796 31.881 51.8656 36.152C51.1276 36.877 50.6666 37.885 50.6666 39C50.6666 41.206 52.4606 43 54.6666 43C55.0586 43 55.4306 42.926 55.7896 42.82C58.9656 49.263 59.5436 54.394 57.3026 56.636C54.8176 59.119 48.9336 58.18 41.5226 54.103L38.6126 52.673L37.7306 54.468L40.5986 55.876C45.5486 58.601 49.8906 59.984 53.2696 59.984C55.5686 59.984 57.4216 59.343 58.7156 58.049C61.6936 55.071 61.2556 49.314 57.5146 41.8C58.2256 41.079 58.6666 40.091 58.6666 39C58.6666 36.794 56.8726 35 54.6666 35C54.2986 35 53.9486 35.066 53.6096 35.16C52.9046 34.111 52.1576 33.057 51.3666 32.001C56.9726 24.51 60.3096 17.377 60.6316 12.21ZM12.6666 25C12.6666 26.103 11.7696 27 10.6666 27C9.56363 27 8.66663 26.103 8.66663 25C8.66663 23.897 9.56363 23 10.6666 23C11.7696 23 12.6666 23.897 12.6666 25ZM11.6666 57C11.6666 59.206 9.87263 61 7.66663 61C5.46063 61 3.66663 59.206 3.66663 57C3.66663 54.794 5.46063 53 7.66663 53C9.87263 53 11.6666 54.794 11.6666 57ZM56.6666 39C56.6666 40.103 55.7696 41 54.6666 41C53.5636 41 52.6666 40.103 52.6666 39C52.6666 37.897 53.5636 37 54.6666 37C55.7696 37 56.6666 37.897 56.6666 39ZM57.6666 3C59.8726 3 61.6666 4.794 61.6666 7C61.6666 9.206 59.8726 11 57.6666 11C55.4606 11 53.6666 9.206 53.6666 7C53.6666 4.794 55.4606 3 57.6666 3ZM34.3296 14.564C40.8096 9.787 47.0746 6.685 51.7416 6.102C51.6966 6.395 51.6666 6.694 51.6666 7C51.6666 10.309 54.3576 13 57.6666 13C57.9686 13 58.2636 12.97 58.5546 12.927C57.9696 17.502 54.9096 23.826 50.1016 30.352C47.8636 27.513 45.3556 24.69 42.6666 22C39.9056 19.24 37.1006 16.75 34.3296 14.564Z" fill="#5490F5"/>
<path d="M23.6666 48V51H41.6666C41.6666 50.067 41.6666 49.041 41.6666 48H23.6666Z" fill="#393A3A"/>
<path d="M39.6666 55C39.6666 58.866 36.5326 62 32.6666 62C28.8006 62 25.6666 58.866 25.6666 55H39.6666Z" fill="#393A3A"/>
<path d="M42.6666 48H22.6666C22.1146 48 21.6666 47.552 21.6666 47V45C21.6666 44.448 22.1146 44 22.6666 44H42.6666C43.2186 44 43.6666 44.448 43.6666 45V47C43.6666 47.552 43.2186 48 42.6666 48Z" fill="#D5D6D8"/>
<path d="M42.6666 44H23.6666V45C23.6666 46.105 24.5616 47 25.6666 47H43.6666V45C43.6666 44.448 43.2186 44 42.6666 44Z" fill="#F1F1F3"/>
<path d="M42.6666 55H22.6666C22.1146 55 21.6666 54.552 21.6666 54V52C21.6666 51.448 22.1146 51 22.6666 51H42.6666C43.2186 51 43.6666 51.448 43.6666 52V54C43.6666 54.552 43.2186 55 42.6666 55Z" fill="#D5D6D8"/>
<path d="M42.6666 51H23.6666V52C23.6666 53.105 24.5616 54 25.6666 54H43.6666V52C43.6666 51.448 43.2186 51 42.6666 51Z" fill="#F1F1F3"/>
<path d="M57.6666 1C55.4326 1 53.4836 2.229 52.4516 4.045C47.1706 4.369 40.0406 7.763 32.6686 13.29C25.7206 8.086 19.0896 4.87 14.0056 4.178C14.0796 4.868 14.1686 5.553 14.2666 6.235C18.6206 6.976 24.5276 9.751 31.0256 14.55C28.2256 16.758 25.4106 19.257 22.6666 22C21.8256 22.841 21.0176 23.689 20.2236 24.541C20.5516 25.164 20.8946 25.777 21.2446 26.385C22.1606 25.386 23.1016 24.393 24.0806 23.414C26.8886 20.606 29.7976 18.055 32.6866 15.81C35.4776 17.987 38.3556 20.518 41.2516 23.414C45.3316 27.494 48.9796 31.88 51.8656 36.151C51.1276 36.877 50.6666 37.885 50.6666 39C50.6666 41.206 52.4606 43 54.6666 43C55.0586 43 55.4306 42.926 55.7896 42.82C57.9656 47.233 58.9206 51.03 58.5866 53.706C59.2406 53.847 59.9006 53.971 60.5626 54.09C61.0066 50.955 59.9856 46.765 57.5146 41.802C58.2256 41.079 58.6666 40.091 58.6666 39C58.6666 36.794 56.8726 35 54.6666 35C54.2986 35 53.9486 35.066 53.6096 35.16C52.9046 34.111 52.1576 33.057 51.3666 32.001C56.9726 24.511 60.3096 17.378 60.6316 12.21C62.4416 11.175 63.6666 9.23 63.6666 7C63.6666 3.691 60.9756 1 57.6666 1ZM54.6666 37C55.7696 37 56.6666 37.897 56.6666 39C56.6666 40.103 55.7696 41 54.6666 41C53.5636 41 52.6666 40.103 52.6666 39C52.6666 37.897 53.5636 37 54.6666 37ZM50.1016 30.352C47.8636 27.513 45.3556 24.69 42.6666 22C39.9056 19.239 37.1016 16.75 34.3306 14.563C40.8106 9.786 47.0756 6.684 51.7426 6.101C51.6966 6.395 51.6666 6.694 51.6666 7C51.6666 10.309 54.3576 13 57.6666 13C57.9686 13 58.2636 12.97 58.5546 12.927C57.9696 17.502 54.9096 23.826 50.1016 30.352ZM57.6666 11C55.4606 11 53.6666 9.206 53.6666 7C53.6666 4.794 55.4606 3 57.6666 3C59.8726 3 61.6666 4.794 61.6666 7C61.6666 9.206 59.8726 11 57.6666 11Z" fill="#81B4FC"/>
</svg>
